<?xml version="1.0" encoding="UTF-8" standalone="no"?>
<!DOCTYPE svg PUBLIC "-//W3C//DTD SVG 1.1//EN"
 "http://www.w3.org/Graphics/SVG/1.1/DTD/svg11.dtd">
<!-- Generated by graphviz version 2.43.0 (0)
 -->
<!-- Title: %3 Pages: 1 -->
<svg width="819pt" height="234pt"
 viewBox="0.00 0.00 818.50 233.76" xmlns="http://www.w3.org/2000/svg" xmlns:xlink="http://www.w3.org/1999/xlink">
<g id="graph0" class="graph" transform="scale(1 1) rotate(0) translate(4 229.76)">
<title>%3</title>
<polygon fill="white" stroke="transparent" points="-4,4 -4,-229.76 814.5,-229.76 814.5,4 -4,4"/>
<!-- left_mob_count -->
<g id="node1" class="node">
<title>left_mob_count</title>
<polygon fill="lightgray" stroke="black" points="173.5,-225.76 87.5,-225.76 87.5,-207.76 173.5,-207.76 173.5,-225.76"/>
<text text-anchor="middle" x="130.5" y="-214.56" font-family="Times,serif" font-size="9.00">left_mob_count</text>
</g>
<!-- 32 -->
<g id="node11" class="node">
<title>32</title>
<ellipse fill="white" stroke="black" cx="348.5" cy="-151.26" rx="20.51" ry="20.51"/>
<text text-anchor="middle" x="348.5" y="-149.06" font-family="Times,serif" font-size="9.00">32</text>
</g>
<!-- left_mob_count&#45;&gt;32 -->
<g id="edge10" class="edge">
<title>left_mob_count&#45;&gt;32</title>
<path fill="none" stroke="green" stroke-width="0.58" d="M172.95,-207.74C220.26,-198.48 293.55,-183.06 319.5,-171.76 320.89,-171.16 322.29,-170.49 323.67,-169.76"/>
<polygon fill="green" stroke="green" stroke-width="0.58" points="325.73,-172.61 332.54,-164.49 322.15,-166.6 325.73,-172.61"/>
</g>
<!-- 23 -->
<g id="node12" class="node">
<title>23</title>
<ellipse fill="white" stroke="black" cx="407.5" cy="-151.26" rx="20.51" ry="20.51"/>
<text text-anchor="middle" x="407.5" y="-149.06" font-family="Times,serif" font-size="9.00">23</text>
</g>
<!-- left_mob_count&#45;&gt;23 -->
<g id="edge1" class="edge">
<title>left_mob_count&#45;&gt;23</title>
<path fill="none" stroke="green" stroke-width="0.21" d="M173.62,-209.11C239.57,-198.79 359.82,-179.31 378.5,-171.76 379.91,-171.2 381.31,-170.55 382.71,-169.86"/>
<polygon fill="green" stroke="green" stroke-width="0.21" points="384.74,-172.73 391.61,-164.66 381.21,-166.68 384.74,-172.73"/>
</g>
<!-- 24 -->
<g id="node13" class="node">
<title>24</title>
<ellipse fill="white" stroke="black" cx="466.5" cy="-151.26" rx="20.51" ry="20.51"/>
<text text-anchor="middle" x="466.5" y="-149.06" font-family="Times,serif" font-size="9.00">24</text>
</g>
<!-- left_mob_count&#45;&gt;24 -->
<g id="edge2" class="edge">
<title>left_mob_count&#45;&gt;24</title>
<path fill="none" stroke="green" stroke-width="0.36" d="M173.59,-209.23C176.95,-208.73 180.28,-208.24 183.5,-207.76 296.32,-191.26 331.05,-212.62 437.5,-171.76 438.92,-171.22 440.33,-170.6 441.73,-169.92"/>
<polygon fill="green" stroke="green" stroke-width="0.36" points="443.74,-172.8 450.65,-164.77 440.24,-166.74 443.74,-172.8"/>
</g>
<!-- 25 -->
<g id="node14" class="node">
<title>25</title>
<ellipse fill="white" stroke="black" cx="525.5" cy="-151.26" rx="20.51" ry="20.51"/>
<text text-anchor="middle" x="525.5" y="-149.06" font-family="Times,serif" font-size="9.00">25</text>
</g>
<!-- left_mob_count&#45;&gt;25 -->
<g id="edge3" class="edge">
<title>left_mob_count&#45;&gt;25</title>
<path fill="none" stroke="red" stroke-width="0.57" d="M173.58,-209.13C176.94,-208.66 180.27,-208.19 183.5,-207.76 322.31,-189.31 365.12,-220.22 496.5,-171.76 497.92,-171.24 499.35,-170.63 500.75,-169.96"/>
<polygon fill="red" stroke="red" stroke-width="0.57" points="502.74,-172.86 509.68,-164.86 499.26,-166.78 502.74,-172.86"/>
</g>
<!-- 26 -->
<g id="node15" class="node">
<title>26</title>
<ellipse fill="white" stroke="black" cx="584.5" cy="-151.26" rx="20.51" ry="20.51"/>
<text text-anchor="middle" x="584.5" y="-149.06" font-family="Times,serif" font-size="9.00">26</text>
</g>
<!-- left_mob_count&#45;&gt;26 -->
<g id="edge4" class="edge">
<title>left_mob_count&#45;&gt;26</title>
<path fill="none" stroke="red" stroke-width="0.19" d="M173.57,-209.07C176.93,-208.6 180.27,-208.16 183.5,-207.76 348.35,-187.36 399.14,-227.83 555.5,-171.76 557.11,-171.19 558.72,-170.5 560.3,-169.74"/>
<polygon fill="red" stroke="red" stroke-width="0.19" points="562.1,-172.74 569.01,-164.72 558.6,-166.68 562.1,-172.74"/>
</g>
<!-- 27 -->
<g id="node16" class="node">
<title>27</title>
<ellipse fill="white" stroke="black" cx="643.5" cy="-151.26" rx="20.51" ry="20.51"/>
<text text-anchor="middle" x="643.5" y="-149.06" font-family="Times,serif" font-size="9.00">27</text>
</g>
<!-- left_mob_count&#45;&gt;27 -->
<g id="edge5" class="edge">
<title>left_mob_count&#45;&gt;27</title>
<path fill="none" stroke="red" stroke-width="0.11" d="M173.57,-209.02C176.92,-208.57 180.27,-208.14 183.5,-207.76 374.42,-185.41 433.14,-235.46 614.5,-171.76 616.11,-171.2 617.72,-170.52 619.31,-169.76"/>
<polygon fill="red" stroke="red" stroke-width="0.11" points="621.1,-172.77 628.03,-164.76 617.61,-166.7 621.1,-172.77"/>
</g>
<!-- 28 -->
<g id="node17" class="node">
<title>28</title>
<ellipse fill="white" stroke="black" cx="112.5" cy="-151.26" rx="20.51" ry="20.51"/>
<text text-anchor="middle" x="112.5" y="-149.06" font-family="Times,serif" font-size="9.00">28</text>
</g>
<!-- left_mob_count&#45;&gt;28 -->
<g id="edge6" class="edge">
<title>left_mob_count&#45;&gt;28</title>
<path fill="none" stroke="red" stroke-width="0.13" d="M128.22,-207.72C126.3,-200.93 123.42,-190.79 120.65,-181.02"/>
<polygon fill="red" stroke="red" stroke-width="0.13" points="123.95,-179.81 117.85,-171.14 117.21,-181.72 123.95,-179.81"/>
</g>
<!-- 29 -->
<g id="node18" class="node">
<title>29</title>
<ellipse fill="white" stroke="black" cx="171.5" cy="-151.26" rx="20.51" ry="20.51"/>
<text text-anchor="middle" x="171.5" y="-149.06" font-family="Times,serif" font-size="9.00">29</text>
</g>
<!-- left_mob_count&#45;&gt;29 -->
<g id="edge7" class="edge">
<title>left_mob_count&#45;&gt;29</title>
<path fill="none" stroke="red" stroke-width="0.17" d="M135.69,-207.72C140.61,-200.11 148.25,-188.27 155.22,-177.48"/>
<polygon fill="red" stroke="red" stroke-width="0.17" points="158.35,-179.08 160.83,-168.78 152.47,-175.28 158.35,-179.08"/>
</g>
<!-- 30 -->
<g id="node19" class="node">
<title>30</title>
<ellipse fill="white" stroke="black" cx="230.5" cy="-151.26" rx="20.51" ry="20.51"/>
<text text-anchor="middle" x="230.5" y="-149.06" font-family="Times,serif" font-size="9.00">30</text>
</g>
<!-- left_mob_count&#45;&gt;30 -->
<g id="edge8" class="edge">
<title>left_mob_count&#45;&gt;30</title>
<path fill="none" stroke="green" stroke-width="0.21" d="M143.94,-207.64C158.29,-198.92 181.64,-184.59 201.5,-171.76 202.77,-170.94 204.08,-170.09 205.39,-169.23"/>
<polygon fill="green" stroke="green" stroke-width="0.21" points="207.62,-171.95 214.01,-163.51 203.74,-166.12 207.62,-171.95"/>
</g>
<!-- 31 -->
<g id="node20" class="node">
<title>31</title>
<ellipse fill="white" stroke="black" cx="289.5" cy="-151.26" rx="20.51" ry="20.51"/>
<text text-anchor="middle" x="289.5" y="-149.06" font-family="Times,serif" font-size="9.00">31</text>
</g>
<!-- left_mob_count&#45;&gt;31 -->
<g id="edge9" class="edge">
<title>left_mob_count&#45;&gt;31</title>
<path fill="none" stroke="green" stroke-width="0.18" d="M161.63,-207.75C188.55,-200.24 228.14,-187.77 260.5,-171.76 261.86,-171.09 263.23,-170.37 264.6,-169.6"/>
<polygon fill="green" stroke="green" stroke-width="0.18" points="266.71,-172.41 273.4,-164.19 263.04,-166.45 266.71,-172.41"/>
</g>
<!-- left_powerup_count -->
<g id="node2" class="node">
<title>left_powerup_count</title>
<polygon fill="lightgray" stroke="black" points="299,-225.76 192,-225.76 192,-207.76 299,-207.76 299,-225.76"/>
<text text-anchor="middle" x="245.5" y="-214.56" font-family="Times,serif" font-size="9.00">left_powerup_count</text>
</g>
<!-- left_powerup_count&#45;&gt;32 -->
<g id="edge20" class="edge">
<title>left_powerup_count&#45;&gt;32</title>
<path fill="none" stroke="green" stroke-width="0.38" d="M259.55,-207.72C274.54,-199.07 298.91,-184.79 319.5,-171.76 320.78,-170.95 322.09,-170.11 323.41,-169.26"/>
<polygon fill="green" stroke="green" stroke-width="0.38" points="325.63,-171.99 332.04,-163.56 321.77,-166.15 325.63,-171.99"/>
</g>
<!-- left_powerup_count&#45;&gt;23 -->
<g id="edge11" class="edge">
<title>left_powerup_count&#45;&gt;23</title>
<path fill="none" stroke="green" stroke-width="0.29" d="M277.9,-207.71C305.44,-200.25 345.63,-187.88 378.5,-171.76 379.86,-171.1 381.23,-170.37 382.6,-169.61"/>
<polygon fill="green" stroke="green" stroke-width="0.29" points="384.71,-172.42 391.41,-164.21 381.05,-166.46 384.71,-172.42"/>
</g>
<!-- left_powerup_count&#45;&gt;24 -->
<g id="edge12" class="edge">
<title>left_powerup_count&#45;&gt;24</title>
<path fill="none" stroke="green" stroke-width="0.38" d="M299.3,-208.84C338.74,-202.49 392.94,-191.06 437.5,-171.76 438.89,-171.16 440.29,-170.49 441.68,-169.77"/>
<polygon fill="green" stroke="green" stroke-width="0.38" points="443.73,-172.62 450.54,-164.5 440.16,-166.6 443.73,-172.62"/>
</g>
<!-- left_powerup_count&#45;&gt;25 -->
<g id="edge13" class="edge">
<title>left_powerup_count&#45;&gt;25</title>
<path fill="none" stroke="red" stroke-width="0.19" d="M298.14,-207.73C366.26,-197.16 478.42,-179.05 496.5,-171.76 497.91,-171.2 499.32,-170.56 500.71,-169.86"/>
<polygon fill="red" stroke="red" stroke-width="0.19" points="502.74,-172.73 509.61,-164.67 499.21,-166.68 502.74,-172.73"/>
</g>
<!-- left_powerup_count&#45;&gt;26 -->
<g id="edge14" class="edge">
<title>left_powerup_count&#45;&gt;26</title>
<path fill="none" stroke="green" stroke-width="0.14" d="M299.02,-208.8C384.55,-197.58 543.67,-176.31 555.5,-171.76 556.92,-171.22 558.33,-170.6 559.73,-169.91"/>
<polygon fill="green" stroke="green" stroke-width="0.14" points="561.74,-172.8 568.65,-164.77 558.24,-166.74 561.74,-172.8"/>
</g>
<!-- left_powerup_count&#45;&gt;27 -->
<g id="edge15" class="edge">
<title>left_powerup_count&#45;&gt;27</title>
<path fill="none" stroke="green" stroke-width="0.31" d="M299.11,-208.92C302.29,-208.53 305.44,-208.14 308.5,-207.76 444.42,-191.14 486.08,-219.31 614.5,-171.76 615.92,-171.24 617.34,-170.63 618.75,-169.96"/>
<polygon fill="green" stroke="green" stroke-width="0.31" points="620.74,-172.85 627.68,-164.85 617.26,-166.78 620.74,-172.85"/>
</g>
<!-- left_powerup_count&#45;&gt;28 -->
<g id="edge16" class="edge">
<title>left_powerup_count&#45;&gt;28</title>
<path fill="none" stroke="red" stroke-width="0.38" d="M223.01,-207.69C201.55,-199.65 168.57,-186.42 141.5,-171.76 140.17,-171.04 138.82,-170.28 137.47,-169.48"/>
<polygon fill="red" stroke="red" stroke-width="0.38" points="139.05,-166.34 128.72,-163.96 135.31,-172.26 139.05,-166.34"/>
</g>
<!-- left_powerup_count&#45;&gt;29 -->
<g id="edge17" class="edge">
<title>left_powerup_count&#45;&gt;29</title>
<path fill="none" stroke="red" stroke-width="0.54" d="M236.13,-207.72C225.72,-198.79 208.55,-184.05 194.52,-172.01"/>
<polygon fill="red" stroke="red" stroke-width="0.54" points="196.57,-169.16 186.7,-165.3 192.01,-174.47 196.57,-169.16"/>
</g>
<!-- left_powerup_count&#45;&gt;30 -->
<g id="edge18" class="edge">
<title>left_powerup_count&#45;&gt;30</title>
<path fill="none" stroke="green" stroke-width="0.58" d="M243.6,-207.72C242.01,-200.98 239.64,-190.94 237.34,-181.24"/>
<polygon fill="green" stroke="green" stroke-width="0.58" points="240.73,-180.34 235.02,-171.41 233.92,-181.95 240.73,-180.34"/>
</g>
<!-- left_powerup_count&#45;&gt;31 -->
<g id="edge19" class="edge">
<title>left_powerup_count&#45;&gt;31</title>
<path fill="none" stroke="green" stroke-width="0.23" d="M251.07,-207.72C256.44,-199.98 264.83,-187.87 272.4,-176.93"/>
<polygon fill="green" stroke="green" stroke-width="0.23" points="275.41,-178.74 278.23,-168.52 269.66,-174.75 275.41,-178.74"/>
</g>
<!-- middle_mob_count -->
<g id="node3" class="node">
<title>middle_mob_count</title>
<polygon fill="lightgray" stroke="black" points="420,-225.76 317,-225.76 317,-207.76 420,-207.76 420,-225.76"/>
<text text-anchor="middle" x="368.5" y="-214.56" font-family="Times,serif" font-size="9.00">middle_mob_count</text>
</g>
<!-- middle_mob_count&#45;&gt;32 -->
<g id="edge30" class="edge">
<title>middle_mob_count&#45;&gt;32</title>
<path fill="none" stroke="red" stroke-width="0.25" d="M365.97,-207.72C363.81,-200.86 360.57,-190.57 357.46,-180.72"/>
<polygon fill="red" stroke="red" stroke-width="0.25" points="360.79,-179.63 354.45,-171.14 354.11,-181.73 360.79,-179.63"/>
</g>
<!-- middle_mob_count&#45;&gt;23 -->
<g id="edge21" class="edge">
<title>middle_mob_count&#45;&gt;23</title>
<path fill="none" stroke="red" stroke-width="0.33" d="M373.44,-207.72C378.08,-200.16 385.29,-188.43 391.88,-177.7"/>
<polygon fill="red" stroke="red" stroke-width="0.33" points="394.94,-179.39 397.2,-169.04 388.98,-175.73 394.94,-179.39"/>
</g>
<!-- middle_mob_count&#45;&gt;24 -->
<g id="edge22" class="edge">
<title>middle_mob_count&#45;&gt;24</title>
<path fill="none" stroke="red" stroke-width="0.47" d="M381.28,-207.75C395.17,-199 418.01,-184.53 437.5,-171.76 438.77,-170.93 440.07,-170.08 441.38,-169.21"/>
<polygon fill="red" stroke="red" stroke-width="0.47" points="443.61,-171.93 449.98,-163.47 439.72,-166.11 443.61,-171.93"/>
</g>
<!-- middle_mob_count&#45;&gt;25 -->
<g id="edge23" class="edge">
<title>middle_mob_count&#45;&gt;25</title>
<path fill="none" stroke="green" stroke-width="0.11" d="M398.88,-207.76C425.39,-200.2 464.52,-187.67 496.5,-171.76 497.86,-171.09 499.23,-170.36 500.59,-169.59"/>
<polygon fill="green" stroke="green" stroke-width="0.11" points="502.71,-172.4 509.39,-164.17 499.04,-166.44 502.71,-172.4"/>
</g>
<!-- middle_mob_count&#45;&gt;26 -->
<g id="edge24" class="edge">
<title>middle_mob_count&#45;&gt;26</title>
<path fill="none" stroke="red" stroke-width="0.29" d="M420.09,-208.77C458.56,-202.34 511.79,-190.85 555.5,-171.76 556.89,-171.16 558.29,-170.48 559.67,-169.76"/>
<polygon fill="red" stroke="red" stroke-width="0.29" points="561.73,-172.61 568.53,-164.49 558.15,-166.59 561.73,-172.61"/>
</g>
<!-- middle_mob_count&#45;&gt;27 -->
<g id="edge25" class="edge">
<title>middle_mob_count&#45;&gt;27</title>
<path fill="none" stroke="green" stroke-width="0.14" d="M419.8,-207.75C486.54,-197.14 596.75,-178.95 614.5,-171.76 615.91,-171.2 617.31,-170.55 618.71,-169.85"/>
<polygon fill="green" stroke="green" stroke-width="0.14" points="620.74,-172.72 627.61,-164.66 617.21,-166.68 620.74,-172.72"/>
</g>
<!-- middle_mob_count&#45;&gt;28 -->
<g id="edge26" class="edge">
<title>middle_mob_count&#45;&gt;28</title>
<path fill="none" stroke="red" stroke-width="0.38" d="M316.76,-208.19C259.9,-199.43 172.53,-184.58 141.5,-171.76 140.1,-171.19 138.69,-170.53 137.3,-169.83"/>
<polygon fill="red" stroke="red" stroke-width="0.38" points="138.81,-166.66 128.41,-164.61 135.27,-172.69 138.81,-166.66"/>
</g>
<!-- middle_mob_count&#45;&gt;29 -->
<g id="edge27" class="edge">
<title>middle_mob_count&#45;&gt;29</title>
<path fill="none" stroke="green" stroke-width="0.18" d="M320.71,-207.7C286.27,-200.83 239.25,-189.26 200.5,-171.76 199.12,-171.14 197.73,-170.45 196.35,-169.72"/>
<polygon fill="green" stroke="green" stroke-width="0.18" points="197.88,-166.55 187.5,-164.41 194.27,-172.56 197.88,-166.55"/>
</g>
<!-- middle_mob_count&#45;&gt;30 -->
<g id="edge28" class="edge">
<title>middle_mob_count&#45;&gt;30</title>
<path fill="none" stroke="red" stroke-width="0.12" d="M344.47,-207.7C321.95,-199.76 287.62,-186.69 259.5,-171.76 258.16,-171.05 256.81,-170.3 255.45,-169.51"/>
<polygon fill="red" stroke="red" stroke-width="0.12" points="257.03,-166.36 246.69,-164.01 253.31,-172.29 257.03,-166.36"/>
</g>
<!-- middle_mob_count&#45;&gt;31 -->
<g id="edge29" class="edge">
<title>middle_mob_count&#45;&gt;31</title>
<path fill="none" stroke="green" stroke-width="0.23" d="M358.49,-207.72C347.14,-198.6 328.25,-183.4 313.09,-171.23"/>
<polygon fill="green" stroke="green" stroke-width="0.23" points="315.12,-168.36 305.13,-164.83 310.74,-173.82 315.12,-168.36"/>
</g>
<!-- middle_powerup_count -->
<g id="node4" class="node">
<title>middle_powerup_count</title>
<polygon fill="lightgray" stroke="black" points="562.5,-225.76 438.5,-225.76 438.5,-207.76 562.5,-207.76 562.5,-225.76"/>
<text text-anchor="middle" x="500.5" y="-214.56" font-family="Times,serif" font-size="9.00">middle_powerup_count</text>
</g>
<!-- middle_powerup_count&#45;&gt;32 -->
<g id="edge40" class="edge">
<title>middle_powerup_count&#45;&gt;32</title>
<path fill="none" stroke="red" stroke-width="0.21" d="M471.83,-207.73C446.36,-200.07 408.47,-187.41 377.5,-171.76 376.15,-171.08 374.78,-170.34 373.42,-169.57"/>
<polygon fill="red" stroke="red" stroke-width="0.21" points="374.98,-166.42 364.63,-164.14 371.29,-172.37 374.98,-166.42"/>
</g>
<!-- middle_powerup_count&#45;&gt;23 -->
<g id="edge31" class="edge">
<title>middle_powerup_count&#45;&gt;23</title>
<path fill="none" stroke="red" stroke-width="0.21" d="M488.72,-207.72C474.69,-198.14 450.87,-181.87 432.64,-169.42"/>
<polygon fill="red" stroke="red" stroke-width="0.21" points="434.44,-166.41 424.21,-163.67 430.49,-172.2 434.44,-166.41"/>
</g>
<!-- middle_powerup_count&#45;&gt;24 -->
<g id="edge32" class="edge">
<title>middle_powerup_count&#45;&gt;24</title>
<path fill="none" stroke="green" stroke-width="0.16" d="M496.19,-207.72C492.24,-200.34 486.16,-188.98 480.53,-178.46"/>
<polygon fill="green" stroke="green" stroke-width="0.16" points="483.57,-176.72 475.76,-169.56 477.4,-180.03 483.57,-176.72"/>
</g>
<!-- middle_powerup_count&#45;&gt;25 -->
<g id="edge33" class="edge">
<title>middle_powerup_count&#45;&gt;25</title>
<path fill="none" stroke="green" stroke-width="0.24" d="M503.67,-207.72C506.43,-200.69 510.62,-190.05 514.59,-179.97"/>
<polygon fill="green" stroke="green" stroke-width="0.24" points="517.87,-181.2 518.28,-170.61 511.36,-178.63 517.87,-181.2"/>
</g>
<!-- middle_powerup_count&#45;&gt;26 -->
<g id="edge34" class="edge">
<title>middle_powerup_count&#45;&gt;26</title>
<path fill="none" stroke="red" stroke-width="0.55" d="M511.14,-207.72C523.47,-198.4 544.18,-182.74 560.46,-170.44"/>
<polygon fill="red" stroke="red" stroke-width="0.55" points="562.63,-173.18 568.5,-164.36 558.41,-167.6 562.63,-173.18"/>
</g>
<!-- middle_powerup_count&#45;&gt;27 -->
<g id="edge35" class="edge">
<title>middle_powerup_count&#45;&gt;27</title>
<path fill="none" stroke="green" stroke-width="0.47" d="M526.11,-207.72C549.7,-199.88 585.34,-186.96 614.5,-171.76 615.85,-171.06 617.2,-170.31 618.56,-169.53"/>
<polygon fill="green" stroke="green" stroke-width="0.47" points="620.7,-172.32 627.33,-164.06 616.99,-166.38 620.7,-172.32"/>
</g>
<!-- middle_powerup_count&#45;&gt;28 -->
<g id="edge36" class="edge">
<title>middle_powerup_count&#45;&gt;28</title>
<path fill="none" stroke="green" stroke-width="0.19" d="M438.22,-208.5C337.27,-196.68 148.39,-174.33 141.5,-171.76 140.08,-171.23 138.66,-170.62 137.25,-169.95"/>
<polygon fill="green" stroke="green" stroke-width="0.19" points="138.74,-166.77 128.32,-164.83 135.26,-172.84 138.74,-166.77"/>
</g>
<!-- middle_powerup_count&#45;&gt;29 -->
<g id="edge37" class="edge">
<title>middle_powerup_count&#45;&gt;29</title>
<path fill="none" stroke="red" stroke-width="0.15" d="M438.29,-208.14C356.94,-197.93 222.2,-180.15 200.5,-171.76 199.09,-171.22 197.67,-170.59 196.27,-169.91"/>
<polygon fill="red" stroke="red" stroke-width="0.15" points="197.76,-166.73 187.35,-164.76 194.26,-172.79 197.76,-166.73"/>
</g>
<!-- middle_powerup_count&#45;&gt;30 -->
<g id="edge38" class="edge">
<title>middle_powerup_count&#45;&gt;30</title>
<path fill="none" stroke="green" stroke-width="0.12" d="M440.9,-207.73C380.53,-199.09 291.61,-184.83 259.5,-171.76 258.09,-171.19 256.69,-170.55 255.29,-169.85"/>
<polygon fill="green" stroke="green" stroke-width="0.12" points="256.8,-166.67 246.4,-164.65 253.26,-172.72 256.8,-166.67"/>
</g>
<!-- middle_powerup_count&#45;&gt;31 -->
<g id="edge39" class="edge">
<title>middle_powerup_count&#45;&gt;31</title>
<path fill="none" stroke="green" stroke-width="0.2" d="M445.5,-207.71C408.52,-201.05 359.26,-189.71 318.5,-171.76 317.11,-171.15 315.72,-170.48 314.33,-169.75"/>
<polygon fill="green" stroke="green" stroke-width="0.2" points="315.86,-166.58 305.47,-164.47 312.27,-172.6 315.86,-166.58"/>
</g>
<!-- right_mob_count -->
<g id="node5" class="node">
<title>right_mob_count</title>
<polygon fill="lightgray" stroke="black" points="676,-225.76 581,-225.76 581,-207.76 676,-207.76 676,-225.76"/>
<text text-anchor="middle" x="628.5" y="-214.56" font-family="Times,serif" font-size="9.00">right_mob_count</text>
</g>
<!-- right_mob_count&#45;&gt;32 -->
<g id="edge50" class="edge">
<title>right_mob_count&#45;&gt;32</title>
<path fill="none" stroke="red" stroke-width="0.1" d="M580.99,-208.53C513.53,-198.09 396.04,-179.23 377.5,-171.76 376.09,-171.2 374.68,-170.56 373.29,-169.86"/>
<polygon fill="red" stroke="red" stroke-width="0.1" points="374.79,-166.68 364.39,-164.67 371.26,-172.73 374.79,-166.68"/>
</g>
<!-- right_mob_count&#45;&gt;23 -->
<g id="edge41" class="edge">
<title>right_mob_count&#45;&gt;23</title>
<path fill="none" stroke="red" stroke-width="0.26" d="M584.95,-207.71C536.87,-198.47 462.78,-183.15 436.5,-171.76 435.11,-171.16 433.71,-170.49 432.32,-169.77"/>
<polygon fill="red" stroke="red" stroke-width="0.26" points="433.84,-166.6 423.46,-164.5 430.27,-172.62 433.84,-166.6"/>
</g>
<!-- right_mob_count&#45;&gt;24 -->
<g id="edge42" class="edge">
<title>right_mob_count&#45;&gt;24</title>
<path fill="none" stroke="green" stroke-width="0.58" d="M596.1,-207.71C568.56,-200.25 528.37,-187.88 495.5,-171.76 494.14,-171.1 492.77,-170.37 491.4,-169.61"/>
<polygon fill="green" stroke="green" stroke-width="0.58" points="492.95,-166.46 482.59,-164.21 489.29,-172.42 492.95,-166.46"/>
</g>
<!-- right_mob_count&#45;&gt;25 -->
<g id="edge43" class="edge">
<title>right_mob_count&#45;&gt;25</title>
<path fill="none" stroke="red" stroke-width="0.24" d="M614.45,-207.72C599.46,-199.07 575.09,-184.79 554.5,-171.76 553.22,-170.95 551.91,-170.11 550.59,-169.26"/>
<polygon fill="red" stroke="red" stroke-width="0.24" points="552.23,-166.15 541.96,-163.56 548.37,-171.99 552.23,-166.15"/>
</g>
<!-- right_mob_count&#45;&gt;26 -->
<g id="edge44" class="edge">
<title>right_mob_count&#45;&gt;26</title>
<path fill="none" stroke="green" stroke-width="0.17" d="M622.93,-207.72C617.56,-199.98 609.17,-187.87 601.6,-176.93"/>
<polygon fill="green" stroke="green" stroke-width="0.17" points="604.34,-174.75 595.77,-168.52 598.59,-178.74 604.34,-174.75"/>
</g>
<!-- right_mob_count&#45;&gt;27 -->
<g id="edge45" class="edge">
<title>right_mob_count&#45;&gt;27</title>
<path fill="none" stroke="red" stroke-width="0.18" d="M630.4,-207.72C631.99,-200.98 634.36,-190.94 636.66,-181.24"/>
<polygon fill="red" stroke="red" stroke-width="0.18" points="640.08,-181.95 638.98,-171.41 633.27,-180.34 640.08,-181.95"/>
</g>
<!-- right_mob_count&#45;&gt;28 -->
<g id="edge46" class="edge">
<title>right_mob_count&#45;&gt;28</title>
<path fill="none" stroke="green" stroke-width="0.13" d="M580.94,-208.89C577.75,-208.49 574.58,-208.11 571.5,-207.76 380.91,-186.43 322.44,-235.33 141.5,-171.76 139.89,-171.2 138.28,-170.52 136.69,-169.76"/>
<polygon fill="green" stroke="green" stroke-width="0.13" points="138.39,-166.7 127.97,-164.76 134.9,-172.77 138.39,-166.7"/>
</g>
<!-- right_mob_count&#45;&gt;29 -->
<g id="edge47" class="edge">
<title>right_mob_count&#45;&gt;29</title>
<path fill="none" stroke="green" stroke-width="0.48" d="M580.93,-208.93C577.74,-208.52 574.58,-208.13 571.5,-207.76 406.99,-188.25 356.43,-227.7 200.5,-171.76 198.89,-171.19 197.28,-170.5 195.7,-169.74"/>
<polygon fill="green" stroke="green" stroke-width="0.48" points="197.4,-166.68 186.99,-164.71 193.9,-172.74 197.4,-166.68"/>
</g>
<!-- right_mob_count&#45;&gt;30 -->
<g id="edge48" class="edge">
<title>right_mob_count&#45;&gt;30</title>
<path fill="none" stroke="green" stroke-width="0.42" d="M580.93,-209C577.74,-208.57 574.57,-208.16 571.5,-207.76 433.04,-190.06 390.46,-220.09 259.5,-171.76 258.08,-171.24 256.66,-170.63 255.25,-169.96"/>
<polygon fill="green" stroke="green" stroke-width="0.42" points="256.74,-166.78 246.32,-164.86 253.26,-172.86 256.74,-166.78"/>
</g>
<!-- right_mob_count&#45;&gt;31 -->
<g id="edge49" class="edge">
<title>right_mob_count&#45;&gt;31</title>
<path fill="none" stroke="red" stroke-width="0.71" d="M580.69,-209.05C494.09,-196.87 320.02,-172.35 318.5,-171.76 317.08,-171.22 315.67,-170.6 314.27,-169.91"/>
<polygon fill="red" stroke="red" stroke-width="0.71" points="315.76,-166.74 305.35,-164.77 312.26,-172.8 315.76,-166.74"/>
</g>
<!-- right_powerup_count -->
<g id="node6" class="node">
<title>right_powerup_count</title>
<polygon fill="lightgray" stroke="black" points="810.5,-225.76 694.5,-225.76 694.5,-207.76 810.5,-207.76 810.5,-225.76"/>
<text text-anchor="middle" x="752.5" y="-214.56" font-family="Times,serif" font-size="9.00">right_powerup_count</text>
</g>
<!-- right_powerup_count&#45;&gt;32 -->
<g id="edge60" class="edge">
<title>right_powerup_count&#45;&gt;32</title>
<path fill="none" stroke="red" stroke-width="0.16" d="M694.4,-208.82C691.39,-208.46 688.41,-208.11 685.5,-207.76 548.63,-191.59 506.76,-219.57 377.5,-171.76 376.08,-171.24 374.66,-170.63 373.25,-169.96"/>
<polygon fill="red" stroke="red" stroke-width="0.16" points="374.74,-166.78 364.32,-164.85 371.26,-172.85 374.74,-166.78"/>
</g>
<!-- right_powerup_count&#45;&gt;23 -->
<g id="edge51" class="edge">
<title>right_powerup_count&#45;&gt;23</title>
<path fill="none" stroke="green" stroke-width="0.43" d="M694.4,-208.36C606.44,-197.05 448.4,-176.31 436.5,-171.76 435.08,-171.22 433.67,-170.6 432.26,-169.92"/>
<polygon fill="green" stroke="green" stroke-width="0.43" points="433.76,-166.74 423.34,-164.78 430.26,-172.81 433.76,-166.74"/>
</g>
<!-- right_powerup_count&#45;&gt;24 -->
<g id="edge52" class="edge">
<title>right_powerup_count&#45;&gt;24</title>
<path fill="none" stroke="red" stroke-width="0.31" d="M694.5,-208.71C630.15,-200.39 530.75,-185.88 495.5,-171.76 494.09,-171.2 492.68,-170.56 491.28,-169.87"/>
<polygon fill="red" stroke="red" stroke-width="0.31" points="492.79,-166.69 482.38,-164.68 489.26,-172.74 492.79,-166.69"/>
</g>
<!-- right_powerup_count&#45;&gt;25 -->
<g id="edge53" class="edge">
<title>right_powerup_count&#45;&gt;25</title>
<path fill="none" stroke="green" stroke-width="0.27" d="M694.42,-208.69C653.99,-202.38 599.48,-191.07 554.5,-171.76 553.11,-171.17 551.71,-170.5 550.32,-169.78"/>
<polygon fill="green" stroke="green" stroke-width="0.27" points="551.84,-166.61 541.45,-164.53 548.27,-172.63 551.84,-166.61"/>
</g>
<!-- right_powerup_count&#45;&gt;26 -->
<g id="edge54" class="edge">
<title>right_powerup_count&#45;&gt;26</title>
<path fill="none" stroke="red" stroke-width="0.3" d="M717.75,-207.72C688.99,-200.36 647.47,-188.15 613.5,-171.76 612.13,-171.11 610.76,-170.39 609.39,-169.63"/>
<polygon fill="red" stroke="red" stroke-width="0.3" points="610.93,-166.48 600.57,-164.25 607.28,-172.45 610.93,-166.48"/>
</g>
<!-- right_powerup_count&#45;&gt;27 -->
<g id="edge55" class="edge">
<title>right_powerup_count&#45;&gt;27</title>
<path fill="none" stroke="red" stroke-width="0.3" d="M738.7,-207.72C721.35,-197.62 691.23,-180.07 669.51,-167.41"/>
<polygon fill="red" stroke="red" stroke-width="0.3" points="671.18,-164.34 660.78,-162.33 667.66,-170.38 671.18,-164.34"/>
</g>
<!-- right_powerup_count&#45;&gt;28 -->
<g id="edge56" class="edge">
<title>right_powerup_count&#45;&gt;28</title>
<path fill="none" stroke="red" stroke-width="0.21" d="M694.42,-208.64C691.4,-208.33 688.42,-208.03 685.5,-207.76 564.86,-196.58 256.15,-210.92 141.5,-171.76 139.88,-171.21 138.27,-170.54 136.68,-169.79"/>
<polygon fill="red" stroke="red" stroke-width="0.21" points="138.37,-166.73 127.95,-164.81 134.9,-172.81 138.37,-166.73"/>
</g>
<!-- right_powerup_count&#45;&gt;29 -->
<g id="edge57" class="edge">
<title>right_powerup_count&#45;&gt;29</title>
<path fill="none" stroke="red" stroke-width="0.25" d="M694.41,-208.67C691.4,-208.35 688.42,-208.05 685.5,-207.76 577.93,-197.36 302.63,-207.1 200.5,-171.76 198.88,-171.21 197.27,-170.53 195.68,-169.78"/>
<polygon fill="red" stroke="red" stroke-width="0.25" points="197.38,-166.72 186.96,-164.79 193.9,-172.79 197.38,-166.72"/>
</g>
<!-- right_powerup_count&#45;&gt;30 -->
<g id="edge58" class="edge">
<title>right_powerup_count&#45;&gt;30</title>
<path fill="none" stroke="red" stroke-width="0.22" d="M694.41,-208.7C691.4,-208.38 688.41,-208.06 685.5,-207.76 496.47,-188.5 438.74,-234.81 259.5,-171.76 257.89,-171.2 256.28,-170.52 254.69,-169.76"/>
<polygon fill="red" stroke="red" stroke-width="0.22" points="256.39,-166.7 245.97,-164.75 252.9,-172.77 256.39,-166.7"/>
</g>
<!-- right_powerup_count&#45;&gt;31 -->
<g id="edge59" class="edge">
<title>right_powerup_count&#45;&gt;31</title>
<path fill="none" stroke="green" stroke-width="0.42" d="M694.4,-208.75C691.39,-208.41 688.41,-208.08 685.5,-207.76 522.57,-190.05 472.74,-227.18 318.5,-171.76 316.89,-171.19 315.28,-170.5 313.7,-169.73"/>
<polygon fill="green" stroke="green" stroke-width="0.42" points="315.4,-166.67 304.99,-164.71 311.9,-172.74 315.4,-166.67"/>
</g>
<!-- shield level -->
<g id="node7" class="node">
<title>shield level</title>
<polygon fill="lightgray" stroke="black" points="69,-225.76 0,-225.76 0,-207.76 69,-207.76 69,-225.76"/>
<text text-anchor="middle" x="34.5" y="-214.56" font-family="Times,serif" font-size="9.00">shield level</text>
</g>
<!-- shield level&#45;&gt;32 -->
<g id="edge70" class="edge">
<title>shield level&#45;&gt;32</title>
<path fill="none" stroke="red" stroke-width="0.22" d="M69.07,-209.37C72.26,-208.82 75.44,-208.27 78.5,-207.76 185.35,-190.08 218.54,-210.95 319.5,-171.76 320.91,-171.22 322.33,-170.59 323.73,-169.9"/>
<polygon fill="red" stroke="red" stroke-width="0.22" points="325.74,-172.78 332.64,-164.75 322.23,-166.72 325.74,-172.78"/>
</g>
<!-- shield level&#45;&gt;23 -->
<g id="edge61" class="edge">
<title>shield level&#45;&gt;23</title>
<path fill="none" stroke="red" stroke-width="0.28" d="M69.05,-209.28C72.24,-208.74 75.43,-208.23 78.5,-207.76 211.29,-187.74 252.62,-218.54 378.5,-171.76 379.92,-171.24 381.34,-170.62 382.75,-169.95"/>
<polygon fill="red" stroke="red" stroke-width="0.28" points="384.74,-172.85 391.68,-164.84 381.26,-166.77 384.74,-172.85"/>
</g>
<!-- shield level&#45;&gt;24 -->
<g id="edge62" class="edge">
<title>shield level&#45;&gt;24</title>
<path fill="none" stroke="green" stroke-width="0.11" d="M69.04,-209.21C72.24,-208.69 75.42,-208.2 78.5,-207.76 237.29,-185.4 286.65,-226.15 437.5,-171.76 439.11,-171.18 440.72,-170.5 442.3,-169.73"/>
<polygon fill="green" stroke="green" stroke-width="0.11" points="444.1,-172.73 451.01,-164.7 440.6,-166.67 444.1,-172.73"/>
</g>
<!-- shield level&#45;&gt;25 -->
<g id="edge63" class="edge">
<title>shield level&#45;&gt;25</title>
<path fill="none" stroke="green" stroke-width="0.45" d="M69.04,-209.17C72.23,-208.65 75.42,-208.18 78.5,-207.76 263.32,-183.06 320.65,-233.77 496.5,-171.76 498.11,-171.2 499.72,-170.52 501.31,-169.76"/>
<polygon fill="green" stroke="green" stroke-width="0.45" points="503.1,-172.77 510.02,-164.75 499.61,-166.7 503.1,-172.77"/>
</g>
<!-- shield level&#45;&gt;26 -->
<g id="edge64" class="edge">
<title>shield level&#45;&gt;26</title>
<path fill="none" stroke="green" stroke-width="0.69" d="M69.03,-209.13C72.23,-208.63 75.42,-208.16 78.5,-207.76 289.37,-180.71 354.63,-241.41 555.5,-171.76 557.12,-171.2 558.73,-170.53 560.32,-169.78"/>
<polygon fill="green" stroke="green" stroke-width="0.69" points="562.1,-172.79 569.04,-164.78 558.62,-166.72 562.1,-172.79"/>
</g>
<!-- shield level&#45;&gt;27 -->
<g id="edge65" class="edge">
<title>shield level&#45;&gt;27</title>
<path fill="none" stroke="red" stroke-width="0.16" d="M69.03,-209.11C72.22,-208.61 75.42,-208.15 78.5,-207.76 196.97,-193.06 501.55,-210.4 614.5,-171.76 616.12,-171.21 617.73,-170.54 619.32,-169.79"/>
<polygon fill="red" stroke="red" stroke-width="0.16" points="621.1,-172.81 628.04,-164.81 617.63,-166.73 621.1,-172.81"/>
</g>
<!-- shield level&#45;&gt;28 -->
<g id="edge66" class="edge">
<title>shield level&#45;&gt;28</title>
<path fill="none" stroke="red" stroke-width="0.1" d="M44.38,-207.72C55.59,-198.6 74.25,-183.4 89.2,-171.23"/>
<polygon fill="red" stroke="red" stroke-width="0.1" points="91.52,-173.85 97.06,-164.83 87.1,-168.43 91.52,-173.85"/>
</g>
<!-- shield level&#45;&gt;29 -->
<g id="edge67" class="edge">
<title>shield level&#45;&gt;29</title>
<path fill="none" stroke="red" stroke-width="0.14" d="M58.3,-207.67C80.62,-199.71 114.62,-186.61 142.5,-171.76 143.84,-171.05 145.19,-170.29 146.55,-169.5"/>
<polygon fill="red" stroke="red" stroke-width="0.14" points="148.69,-172.29 155.3,-164 144.97,-166.36 148.69,-172.29"/>
</g>
<!-- shield level&#45;&gt;30 -->
<g id="edge68" class="edge">
<title>shield level&#45;&gt;30</title>
<path fill="none" stroke="red" stroke-width="0.2" d="M69.05,-208.09C110.7,-198.6 178.01,-182.39 201.5,-171.76 202.88,-171.14 204.27,-170.45 205.65,-169.72"/>
<polygon fill="red" stroke="red" stroke-width="0.2" points="207.73,-172.55 214.5,-164.4 204.12,-166.55 207.73,-172.55"/>
</g>
<!-- shield level&#45;&gt;31 -->
<g id="edge69" class="edge">
<title>shield level&#45;&gt;31</title>
<path fill="none" stroke="green" stroke-width="0.2" d="M69.11,-209.4C130.22,-198.11 251.68,-175.41 260.5,-171.76 261.9,-171.18 263.31,-170.53 264.7,-169.83"/>
<polygon fill="green" stroke="green" stroke-width="0.2" points="266.73,-172.69 273.59,-164.61 263.19,-166.65 266.73,-172.69"/>
</g>
<!-- move left -->
<g id="node8" class="node">
<title>move left</title>
<ellipse fill="lightblue" stroke="black" cx="269.5" cy="-47.38" rx="41.94" ry="41.94"/>
<text text-anchor="middle" x="269.5" y="-45.18" font-family="Times,serif" font-size="9.00">move left</text>
</g>
<!-- dont move -->
<g id="node9" class="node">
<title>dont move</title>
<ellipse fill="lightblue" stroke="black" cx="375.5" cy="-47.38" rx="45.92" ry="45.92"/>
<text text-anchor="middle" x="375.5" y="-45.18" font-family="Times,serif" font-size="9.00">dont move</text>
</g>
<!-- move right -->
<g id="node10" class="node">
<title>move right</title>
<ellipse fill="lightblue" stroke="black" cx="486.5" cy="-47.38" rx="47.25" ry="47.25"/>
<text text-anchor="middle" x="486.5" y="-45.18" font-family="Times,serif" font-size="9.00">move right</text>
</g>
<!-- 32&#45;&gt;move left -->
<g id="edge98" class="edge">
<title>32&#45;&gt;move left</title>
<path fill="none" stroke="green" stroke-width="0.34" d="M336.16,-134.34C326.77,-122.23 313.42,-105.02 301.13,-89.16"/>
<polygon fill="green" stroke="green" stroke-width="0.34" points="303.72,-86.79 294.82,-81.03 298.18,-91.08 303.72,-86.79"/>
</g>
<!-- 32&#45;&gt;dont move -->
<g id="edge99" class="edge">
<title>32&#45;&gt;dont move</title>
<path fill="none" stroke="red" stroke-width="0.32" d="M353.58,-131.1C355.82,-122.62 358.59,-112.2 361.39,-101.64"/>
<polygon fill="red" stroke="red" stroke-width="0.32" points="364.77,-102.52 363.95,-91.95 358.01,-100.72 364.77,-102.52"/>
</g>
<!-- 32&#45;&gt;move right -->
<g id="edge100" class="edge">
<title>32&#45;&gt;move right</title>
<path fill="none" stroke="red" stroke-width="0.32" d="M365.07,-139.1C388.12,-123.57 427.41,-97.07 430.5,-94.75 434.56,-91.71 438.73,-88.47 442.87,-85.19"/>
<polygon fill="red" stroke="red" stroke-width="0.32" points="445.17,-87.83 450.76,-78.84 440.78,-82.38 445.17,-87.83"/>
</g>
<!-- 23&#45;&gt;move left -->
<g id="edge71" class="edge">
<title>23&#45;&gt;move left</title>
<path fill="none" stroke="green" stroke-width="0.1" d="M391.01,-139.01C386.94,-136.28 382.58,-133.39 378.5,-130.75 353.02,-114.28 344.71,-113.03 320.5,-94.75 316.02,-91.37 311.48,-87.67 307.03,-83.89"/>
<polygon fill="green" stroke="green" stroke-width="0.1" points="309.02,-80.98 299.19,-77.03 304.41,-86.25 309.02,-80.98"/>
</g>
<!-- 23&#45;&gt;dont move -->
<g id="edge72" class="edge">
<title>23&#45;&gt;dont move</title>
<path fill="none" stroke="green" stroke-width="0.27" d="M401.63,-131.57C398.9,-122.86 395.49,-112.02 392.05,-101.07"/>
<polygon fill="green" stroke="green" stroke-width="0.27" points="395.37,-99.96 389.03,-91.46 388.69,-102.05 395.37,-99.96"/>
</g>
<!-- 23&#45;&gt;move right -->
<g id="edge73" class="edge">
<title>23&#45;&gt;move right</title>
<path fill="none" stroke="red" stroke-width="0.16" d="M419.84,-134.34C428.41,-123.29 440.28,-107.98 451.64,-93.34"/>
<polygon fill="red" stroke="red" stroke-width="0.16" points="454.51,-95.35 457.87,-85.3 448.97,-91.06 454.51,-95.35"/>
</g>
<!-- 24&#45;&gt;move left -->
<g id="edge74" class="edge">
<title>24&#45;&gt;move left</title>
<path fill="none" stroke="green" stroke-width="0.15" d="M450.44,-138.24C446.36,-135.53 441.88,-132.84 437.5,-130.75 388.4,-107.32 367.76,-121.7 320.5,-94.75 315.44,-91.87 310.46,-88.4 305.71,-84.68"/>
<polygon fill="green" stroke="green" stroke-width="0.15" points="307.89,-81.94 297.97,-78.24 303.41,-87.32 307.89,-81.94"/>
</g>
<!-- 24&#45;&gt;dont move -->
<g id="edge75" class="edge">
<title>24&#45;&gt;dont move</title>
<path fill="none" stroke="green" stroke-width="0.39" d="M453.07,-135.23C442.45,-123.33 427.08,-106.13 412.83,-90.17"/>
<polygon fill="green" stroke="green" stroke-width="0.39" points="415.21,-87.58 405.94,-82.46 409.99,-92.25 415.21,-87.58"/>
</g>
<!-- 24&#45;&gt;move right -->
<g id="edge76" class="edge">
<title>24&#45;&gt;move right</title>
<path fill="none" stroke="green" stroke-width="0.15" d="M470.26,-131.1C471.79,-123.31 473.64,-113.87 475.54,-104.2"/>
<polygon fill="green" stroke="green" stroke-width="0.15" points="479.03,-104.58 477.53,-94.09 472.16,-103.23 479.03,-104.58"/>
</g>
<!-- 25&#45;&gt;move left -->
<g id="edge77" class="edge">
<title>25&#45;&gt;move left</title>
<path fill="none" stroke="red" stroke-width="0.21" d="M509.57,-137.94C505.49,-135.24 500.98,-132.63 496.5,-130.75 422.87,-99.89 391.69,-130.9 320.5,-94.75 315.24,-92.08 310.11,-88.71 305.26,-85.02"/>
<polygon fill="red" stroke="red" stroke-width="0.21" points="307.34,-82.2 297.38,-78.57 302.9,-87.62 307.34,-82.2"/>
</g>
<!-- 25&#45;&gt;dont move -->
<g id="edge78" class="edge">
<title>25&#45;&gt;dont move</title>
<path fill="none" stroke="red" stroke-width="0.24" d="M509.11,-138.85C505.04,-136.12 500.65,-133.27 496.5,-130.75 467.94,-113.41 458.08,-113.62 430.5,-94.75 426.05,-91.71 421.55,-88.38 417.12,-84.94"/>
<polygon fill="red" stroke="red" stroke-width="0.24" points="419.28,-82.18 409.28,-78.67 414.91,-87.65 419.28,-82.18"/>
</g>
<!-- 25&#45;&gt;move right -->
<g id="edge79" class="edge">
<title>25&#45;&gt;move right</title>
<path fill="none" stroke="red" stroke-width="0.22" d="M518.35,-131.57C515.05,-122.95 510.95,-112.24 506.8,-101.4"/>
<polygon fill="red" stroke="red" stroke-width="0.22" points="510,-99.98 503.16,-91.89 503.46,-102.48 510,-99.98"/>
</g>
<!-- 26&#45;&gt;move left -->
<g id="edge80" class="edge">
<title>26&#45;&gt;move left</title>
<path fill="none" stroke="green" stroke-width="0.45" d="M568.64,-137.78C564.55,-135.08 560.02,-132.52 555.5,-130.75 457.07,-92.34 415.87,-140.23 320.5,-94.75 315.17,-92.21 310,-88.93 305.13,-85.28"/>
<polygon fill="green" stroke="green" stroke-width="0.45" points="307.2,-82.46 297.23,-78.87 302.79,-87.89 307.2,-82.46"/>
</g>
<!-- 26&#45;&gt;dont move -->
<g id="edge81" class="edge">
<title>26&#45;&gt;dont move</title>
<path fill="none" stroke="green" stroke-width="0.34" d="M568.46,-138.18C564.38,-135.48 559.9,-132.8 555.5,-130.75 503.1,-106.32 481.5,-121.99 430.5,-94.75 425.68,-92.18 420.9,-89.13 416.29,-85.84"/>
<polygon fill="green" stroke="green" stroke-width="0.34" points="418.29,-82.96 408.2,-79.72 414.06,-88.55 418.29,-82.96"/>
</g>
<!-- 26&#45;&gt;move right -->
<g id="edge82" class="edge">
<title>26&#45;&gt;move right</title>
<path fill="none" stroke="green" stroke-width="0.12" d="M570.46,-135.66C558.89,-123.64 541.91,-105.98 526.23,-89.68"/>
<polygon fill="green" stroke="green" stroke-width="0.12" points="528.6,-87.1 519.15,-82.31 523.56,-91.95 528.6,-87.1"/>
</g>
<!-- 27&#45;&gt;move left -->
<g id="edge83" class="edge">
<title>27&#45;&gt;move left</title>
<path fill="none" stroke="red" stroke-width="0.33" d="M627.68,-137.68C623.59,-134.99 619.05,-132.45 614.5,-130.75 491.16,-84.75 440.16,-149.62 320.5,-94.75 315.13,-92.29 309.94,-89.06 305.06,-85.44"/>
<polygon fill="red" stroke="red" stroke-width="0.33" points="307.13,-82.61 297.15,-79.06 302.73,-88.06 307.13,-82.61"/>
</g>
<!-- 27&#45;&gt;dont move -->
<g id="edge84" class="edge">
<title>27&#45;&gt;dont move</title>
<path fill="none" stroke="green" stroke-width="0.28" d="M627.59,-137.91C623.5,-135.21 618.98,-132.61 614.5,-130.75 537.51,-98.87 505.65,-130.76 430.5,-94.75 425.57,-92.39 420.72,-89.48 416.07,-86.28"/>
<polygon fill="green" stroke="green" stroke-width="0.28" points="418.05,-83.39 407.93,-80.26 413.89,-89.02 418.05,-83.39"/>
</g>
<!-- 27&#45;&gt;move right -->
<g id="edge85" class="edge">
<title>27&#45;&gt;move right</title>
<path fill="none" stroke="red" stroke-width="0.11" d="M626.98,-139.06C622.91,-136.33 618.56,-133.42 614.5,-130.75 588.25,-113.48 558.77,-94.48 534.73,-79.09"/>
<polygon fill="red" stroke="red" stroke-width="0.11" points="536.44,-76.03 526.13,-73.59 532.67,-81.93 536.44,-76.03"/>
</g>
<!-- 28&#45;&gt;move left -->
<g id="edge86" class="edge">
<title>28&#45;&gt;move left</title>
<path fill="none" stroke="green" stroke-width="0.16" d="M129.02,-139.06C133.09,-136.33 137.44,-133.42 141.5,-130.75 169.54,-112.3 201.27,-91.88 226.12,-75.99"/>
<polygon fill="green" stroke="green" stroke-width="0.16" points="228.07,-78.9 234.61,-70.56 224.3,-73 228.07,-78.9"/>
</g>
<!-- 28&#45;&gt;dont move -->
<g id="edge87" class="edge">
<title>28&#45;&gt;dont move</title>
<path fill="none" stroke="green" stroke-width="0.39" d="M128.42,-137.93C132.51,-135.23 137.02,-132.62 141.5,-130.75 216.39,-99.5 247.41,-130.01 320.5,-94.75 325.42,-92.38 330.27,-89.46 334.92,-86.26"/>
<polygon fill="green" stroke="green" stroke-width="0.39" points="337.1,-88.99 343.06,-80.23 332.94,-83.37 337.1,-88.99"/>
</g>
<!-- 28&#45;&gt;move right -->
<g id="edge88" class="edge">
<title>28&#45;&gt;move right</title>
<path fill="none" stroke="green" stroke-width="0.11" d="M128.33,-137.69C132.42,-135 136.95,-132.45 141.5,-130.75 262.73,-85.39 311.68,-146.09 430.5,-94.75 435.3,-92.68 440.02,-90.06 444.55,-87.13"/>
<polygon fill="green" stroke="green" stroke-width="0.11" points="446.85,-89.79 453,-81.17 442.81,-84.07 446.85,-89.79"/>
</g>
<!-- 29&#45;&gt;move left -->
<g id="edge89" class="edge">
<title>29&#45;&gt;move left</title>
<path fill="none" stroke="red" stroke-width="0.21" d="M185.54,-135.66C198.14,-122.57 217.16,-102.78 233.92,-85.36"/>
<polygon fill="red" stroke="red" stroke-width="0.21" points="236.53,-87.7 240.94,-78.07 231.49,-82.85 236.53,-87.7"/>
</g>
<!-- 29&#45;&gt;dont move -->
<g id="edge90" class="edge">
<title>29&#45;&gt;dont move</title>
<path fill="none" stroke="red" stroke-width="0.13" d="M187.55,-138.22C191.63,-135.51 196.11,-132.83 200.5,-130.75 250.84,-106.95 271.53,-121.25 320.5,-94.75 325.31,-92.15 330.08,-89.09 334.68,-85.79"/>
<polygon fill="red" stroke="red" stroke-width="0.13" points="336.91,-88.49 342.77,-79.66 332.68,-82.91 336.91,-88.49"/>
</g>
<!-- 29&#45;&gt;move right -->
<g id="edge91" class="edge">
<title>29&#45;&gt;move right</title>
<path fill="none" stroke="red" stroke-width="0.18" d="M187.37,-137.79C191.45,-135.09 195.98,-132.52 200.5,-130.75 296.83,-92.98 336.17,-137.27 430.5,-94.75 435.27,-92.6 439.96,-89.93 444.48,-86.97"/>
<polygon fill="red" stroke="red" stroke-width="0.18" points="446.8,-89.62 452.92,-80.97 442.74,-83.91 446.8,-89.62"/>
</g>
<!-- 30&#45;&gt;move left -->
<g id="edge92" class="edge">
<title>30&#45;&gt;move left</title>
<path fill="none" stroke="green" stroke-width="0.39" d="M237.65,-131.57C241.47,-121.59 246.37,-108.81 251.17,-96.27"/>
<polygon fill="green" stroke="green" stroke-width="0.39" points="254.49,-97.37 254.8,-86.78 247.96,-94.87 254.49,-97.37"/>
</g>
<!-- 30&#45;&gt;dont move -->
<g id="edge93" class="edge">
<title>30&#45;&gt;dont move</title>
<path fill="none" stroke="green" stroke-width="0.69" d="M246.95,-138.95C251.02,-136.22 255.39,-133.34 259.5,-130.75 286.13,-113.96 294.82,-112.96 320.5,-94.75 324.89,-91.64 329.37,-88.25 333.77,-84.78"/>
<polygon fill="green" stroke="green" stroke-width="0.69" points="336,-87.48 341.59,-78.48 331.6,-82.03 336,-87.48"/>
</g>
<!-- 30&#45;&gt;move right -->
<g id="edge94" class="edge">
<title>30&#45;&gt;move right</title>
<path fill="none" stroke="red" stroke-width="0.21" d="M246.43,-137.96C250.52,-135.26 255.03,-132.64 259.5,-130.75 331.04,-100.52 360.55,-128.51 430.5,-94.75 435.21,-92.48 439.86,-89.73 444.35,-86.71"/>
<polygon fill="red" stroke="red" stroke-width="0.21" points="446.7,-89.33 452.76,-80.64 442.61,-83.66 446.7,-89.33"/>
</g>
<!-- 31&#45;&gt;move left -->
<g id="edge95" class="edge">
<title>31&#45;&gt;move left</title>
<path fill="none" stroke="red" stroke-width="0.1" d="M285.74,-131.1C283.92,-121.82 281.64,-110.21 279.37,-98.64"/>
<polygon fill="red" stroke="red" stroke-width="0.1" points="282.75,-97.69 277.39,-88.55 275.88,-99.04 282.75,-97.69"/>
</g>
<!-- 31&#45;&gt;dont move -->
<g id="edge96" class="edge">
<title>31&#45;&gt;dont move</title>
<path fill="none" stroke="red" stroke-width="0.42" d="M302.56,-134.78C312.4,-123.12 326.4,-106.54 339.51,-91.01"/>
<polygon fill="red" stroke="red" stroke-width="0.42" points="342.48,-92.92 346.25,-83.02 337.13,-88.41 342.48,-92.92"/>
</g>
<!-- 31&#45;&gt;move right -->
<g id="edge97" class="edge">
<title>31&#45;&gt;move right</title>
<path fill="none" stroke="green" stroke-width="0.38" d="M305.58,-138.28C309.66,-135.57 314.13,-132.87 318.5,-130.75 365.55,-107.94 384.65,-119.88 430.5,-94.75 435.02,-92.28 439.52,-89.41 443.9,-86.34"/>
<polygon fill="green" stroke="green" stroke-width="0.38" points="446.18,-89.01 452.13,-80.24 442.01,-83.38 446.18,-89.01"/>
</g>
</g>
</svg>
